<svg width="600" height="600" viewBox="0 0 600 600" fill="none" xmlns="http://www.w3.org/2000/svg">
    <path d="M50.0102 334.62C49.892 329.81 50.7969 324.985 52.7266 320.336C56.9511 310.158 68.3865 301.264 91.2572 283.476L232.825 173.368C255.696 155.579 267.131 146.685 280.377 143.274C292.029 140.274 304.608 140.163 316.311 142.959C329.615 146.137 341.205 154.829 364.384 172.214L507.861 279.822C531.04 297.206 542.63 305.898 547.033 316C549.111 320.77 550.099 325.748 549.992 330.721C549.997 330.804 550 330.888 550 330.972V393.94C550.007 398.491 549.099 403.048 547.273 407.446C543.049 417.623 531.614 426.518 508.743 444.306L367.175 554.414C344.304 572.203 332.869 581.097 319.622 584.508C307.971 587.508 295.392 587.618 283.689 584.823C270.385 581.645 258.795 572.953 235.616 555.568L92.1386 447.96C68.9594 430.576 57.3697 421.883 52.9673 411.782C51.0111 407.293 50.0212 402.62 50 397.94V334.908C50 334.811 50.0035 334.715 50.0102 334.62Z" fill="#1A1A4C" />
    <path d="M50.0102 270.62C49.892 265.81 50.7969 260.985 52.7266 256.336C56.9511 246.158 68.3865 237.264 91.2572 219.476L232.825 109.368C255.696 91.5792 267.131 82.685 280.377 79.274C292.029 76.2735 304.608 76.1632 316.311 78.9588C329.615 82.1369 341.205 90.8291 364.384 108.214L507.861 215.822C531.04 233.206 542.63 241.898 547.033 252C549.111 256.77 550.099 261.748 549.992 266.721C549.997 266.804 550 266.888 550 266.972V329.94C550.007 334.491 549.099 339.048 547.273 343.446C543.049 353.623 531.614 362.518 508.743 380.306L367.175 490.414C344.304 508.203 332.869 517.097 319.622 520.508C307.971 523.508 295.392 523.618 283.689 520.823C270.385 517.645 258.795 508.953 235.616 491.568L92.1386 383.96C68.9594 366.576 57.3697 357.883 52.9673 347.782C51.0111 343.293 50.0212 338.62 50 333.94V270.908C50 270.811 50.0035 270.715 50.0102 270.62Z" fill="#5865F2" />
    <g style="mix-blend-mode:color-burn">
        <path d="M92.1386 447.96C68.9593 430.576 57.3697 421.883 52.9673 411.782C49.0949 402.896 49.0106 393.288 52.7266 384.336C56.9511 374.158 68.3865 365.264 91.2572 347.476L232.825 237.368C255.696 219.579 267.131 210.685 280.377 207.274C292.029 204.274 304.608 204.163 316.311 206.959C329.615 210.137 341.205 218.829 364.384 236.214L507.861 343.822C531.041 361.206 542.63 369.898 547.033 380C550.905 388.886 550.989 398.493 547.273 407.446C543.049 417.623 531.614 426.518 508.743 444.306L367.175 554.414C344.304 572.202 332.869 581.097 319.622 584.508C307.971 587.508 295.392 587.618 283.689 584.823C270.385 581.645 258.795 572.953 235.616 555.568L92.1386 447.96Z" fill="url(#paint0_linear_5740_494)" />
    </g>
    <g style="mix-blend-mode:color-dodge" opacity="0.75">
        <path d="M52.7266 320.336C50.7969 324.985 49.892 329.81 50.0102 334.62C50.0035 334.715 50 334.811 50 334.908V397.786V397.94C50.0186 402.035 50.7788 406.124 52.279 410.09C50.76 406.075 50 401.932 50 397.786C50 393.253 50.9084 388.716 52.7266 384.336C56.9511 374.158 68.3865 365.264 91.2572 347.476L232.825 237.368C255.696 219.579 267.131 210.685 280.377 207.274C292.029 204.274 304.608 204.163 316.311 206.959C329.615 210.137 341.205 218.829 364.384 236.214L507.861 343.822C531.04 361.206 542.63 369.898 547.033 380C549.003 384.52 549.992 389.227 550 393.94V330.972C550 330.888 549.997 330.804 549.992 330.721C550.099 325.748 549.111 320.77 547.033 316C542.63 305.898 531.041 297.206 507.862 279.822L364.384 172.214C341.205 154.829 329.615 146.137 316.311 142.959C304.608 140.163 292.029 140.274 280.377 143.274C267.131 146.685 255.696 155.579 232.825 173.368L91.2572 283.476C68.3865 301.264 56.9511 310.158 52.7266 320.336Z" fill="#1A1A4C" />
    </g>
    <g style="mix-blend-mode:darken">
        <path d="M300 587.053C306.621 587.141 313.26 586.364 319.622 584.726C332.869 581.315 344.304 572.421 367.175 554.633L508.743 444.524C531.614 426.736 543.049 417.842 547.273 407.664C549.099 403.266 550.007 398.71 550 394.158V331.19C550 331.106 549.997 331.023 549.992 330.94C549.9 335.231 548.994 339.518 547.273 343.664C543.049 353.842 531.614 362.736 508.743 380.524L367.175 490.633C344.304 508.421 332.869 517.315 319.622 520.726C313.26 522.364 306.621 523.141 300 523.053V587.053Z" fill="url(#paint1_linear_5740_494)" />
    </g>
    <path d="M50.0102 206.62C49.892 201.81 50.7969 196.985 52.7266 192.336C56.9511 182.158 68.3865 173.264 91.2572 155.476L232.825 45.3675C255.696 27.5792 267.131 18.685 280.377 15.274C292.029 12.2735 304.608 12.1632 316.311 14.9588C329.615 18.1369 341.205 26.8291 364.384 44.2136L507.861 151.822C531.04 169.206 542.63 177.898 547.033 188C549.111 192.77 550.099 197.748 549.992 202.721C549.997 202.804 550 202.888 550 202.972V265.94C550.007 270.491 549.099 275.048 547.273 279.446C543.049 289.623 531.614 298.518 508.743 316.306L367.175 426.414C344.304 444.203 332.869 453.097 319.622 456.508C307.971 459.508 295.392 459.618 283.689 456.823C270.385 453.645 258.795 444.953 235.616 427.568L92.1386 319.96C68.9594 302.576 57.3697 293.883 52.9673 283.782C51.0111 279.293 50.0212 274.62 50 269.94V206.908C50 206.811 50.0035 206.715 50.0102 206.62Z" fill="#C6D6FF" />
    <g style="mix-blend-mode:multiply">
        <path d="M92.1386 383.96C68.9593 366.576 57.3697 357.883 52.9673 347.782C49.0949 338.896 49.0106 329.288 52.7266 320.336C56.9511 310.158 68.3865 301.264 91.2572 283.476L232.825 173.368C255.696 155.579 267.131 146.685 280.377 143.274C292.029 140.274 304.608 140.163 316.311 142.959C329.615 146.137 341.205 154.829 364.384 172.214L507.861 279.822C531.041 297.206 542.63 305.898 547.033 316C550.905 324.886 550.989 334.493 547.273 343.446C543.049 353.623 531.614 362.518 508.743 380.306L367.175 490.414C344.304 508.202 332.869 517.097 319.622 520.508C307.971 523.508 295.392 523.618 283.689 520.823C270.385 517.645 258.795 508.953 235.616 491.568L92.1386 383.96Z" fill="url(#paint2_linear_5740_494)" />
    </g>
    <g style="mix-blend-mode:hard-light" opacity="0.7">
        <path d="M52.7266 256.336C50.7969 260.985 49.892 265.81 50.0102 270.62C50.0035 270.715 50 270.811 50 270.908V333.786V333.94C50.0186 338.035 50.7788 342.124 52.279 346.09C50.76 342.075 50 337.932 50 333.786C50 329.253 50.9084 324.716 52.7266 320.336C56.9511 310.158 68.3865 301.264 91.2572 283.476L232.825 173.368C255.696 155.579 267.131 146.685 280.377 143.274C292.029 140.274 304.608 140.163 316.311 142.959C329.615 146.137 341.205 154.829 364.384 172.214L507.861 279.822C531.04 297.206 542.63 305.898 547.033 316C549.003 320.52 549.992 325.227 550 329.94V266.972C550 266.888 549.997 266.804 549.992 266.721C550.099 261.748 549.111 256.77 547.033 252C542.63 241.898 531.041 233.206 507.862 215.822L364.384 108.214C341.205 90.8291 329.615 82.1369 316.311 78.9588C304.608 76.1632 292.029 76.2735 280.377 79.274C267.131 82.685 255.696 91.5792 232.825 109.368L91.2572 219.476C68.3865 237.264 56.9511 246.158 52.7266 256.336Z" fill="#5865F2" />
    </g>
    <g style="mix-blend-mode:multiply">
        <path d="M300 523.053C306.621 523.141 313.26 522.364 319.622 520.726C332.869 517.315 344.304 508.421 367.175 490.633L508.743 380.524C531.614 362.736 543.049 353.842 547.273 343.664C549.099 339.266 550.007 334.71 550 330.158V267.19C550 267.106 549.997 267.023 549.992 266.94C549.9 271.231 548.994 275.518 547.273 279.664C543.049 289.842 531.614 298.736 508.743 316.524L367.175 426.633C344.304 444.421 332.869 453.315 319.622 456.726C313.26 458.364 306.621 459.141 300 459.053V523.053Z" fill="url(#paint3_linear_5740_494)" />
    </g>
    <g style="mix-blend-mode:multiply">
        <path d="M300 459.273C306.621 459.36 313.26 458.584 319.622 456.945C332.869 453.534 344.304 444.64 367.175 426.852L508.743 316.744C531.614 298.955 543.049 290.061 547.273 279.883C549.099 275.485 550.007 270.929 550 266.378V203.41C550 203.326 549.997 203.242 549.992 203.159C549.9 207.45 548.994 211.737 547.273 215.883C543.049 226.061 531.614 234.955 508.743 252.744L367.175 362.852C344.304 380.64 332.869 389.534 319.622 392.945C313.26 394.584 306.621 395.36 300 395.273V459.273Z" fill="url(#paint4_linear_5740_494)" />
    </g>
    <g style="mix-blend-mode:multiply">
        <path d="M52.7266 192.336C50.7969 196.985 49.892 201.81 50.0102 206.62C50.0035 206.715 50 206.811 50 206.908V269.786V269.94C50.0186 274.035 50.7788 278.124 52.279 282.09C50.76 278.075 50 273.932 50 269.786C50 265.253 50.9084 260.716 52.7266 256.336C56.9511 246.158 68.3865 237.264 91.2572 219.476L232.825 109.368C255.696 91.5792 267.131 82.685 280.377 79.274C292.029 76.2735 304.608 76.1632 316.311 78.9588C329.615 82.1369 341.205 90.8291 364.384 108.214L507.861 215.822C531.04 233.206 542.63 241.898 547.033 252C549.003 256.52 549.992 261.227 550 265.94V202.972C550 202.888 549.997 202.804 549.992 202.721C550.099 197.748 549.111 192.77 547.033 188C542.63 177.898 531.041 169.206 507.862 151.822L364.384 44.2136C341.205 26.8291 329.615 18.1369 316.311 14.9588C304.608 12.1632 292.029 12.2735 280.377 15.274C267.131 18.685 255.696 27.5792 232.825 45.3675L91.2572 155.476C68.3865 173.264 56.9511 182.158 52.7266 192.336Z" fill="#C6D6FF" />
    </g>
    <g style="mix-blend-mode:multiply">
        <path d="M92.1386 319.96C68.9593 302.576 57.3697 293.883 52.9673 283.782C49.0949 274.896 49.0106 265.288 52.7266 256.336C56.9511 246.158 68.3865 237.264 91.2572 219.476L232.825 109.368C255.696 91.5792 267.131 82.685 280.377 79.274C292.029 76.2735 304.608 76.1632 316.311 78.9588C329.615 82.1369 341.205 90.8291 364.384 108.214L507.861 215.822C531.041 233.206 542.63 241.898 547.033 252C550.905 260.886 550.989 270.493 547.273 279.446C543.049 289.623 531.614 298.518 508.743 316.306L367.175 426.414C344.304 444.202 332.869 453.097 319.622 456.508C307.971 459.508 295.392 459.618 283.689 456.823C270.385 453.645 258.795 444.953 235.616 427.568L92.1386 319.96Z" fill="url(#paint5_linear_5740_494)" />
    </g>
    <g style="mix-blend-mode:luminosity">
        <path d="M92.1386 255.96C68.9593 238.576 57.3697 229.883 52.9673 219.782C49.0949 210.896 49.0106 201.288 52.7266 192.336C56.9511 182.158 68.3865 173.264 91.2572 155.476L232.825 45.3675C255.696 27.5792 267.131 18.685 280.377 15.274C292.029 12.2735 304.608 12.1632 316.311 14.9588C329.615 18.1369 341.205 26.8291 364.384 44.2136L507.861 151.822C531.041 169.206 542.63 177.898 547.033 188C550.905 196.886 550.989 206.493 547.273 215.446C543.049 225.623 531.614 234.518 508.743 252.306L367.175 362.414C344.304 380.202 332.869 389.097 319.622 392.508C307.971 395.508 295.392 395.618 283.689 392.823C270.385 389.645 258.795 380.953 235.616 363.568L92.1386 255.96Z" fill="url(#paint6_linear_5740_494)" />
    </g>
    <g style="mix-blend-mode:soft-light" opacity="0.5" filter="url(#filter0_f_5740_494)">
        <path d="M50.0102 206.62C49.892 201.81 50.7969 196.985 52.7266 192.336C56.9511 182.158 68.3865 173.264 91.2572 155.476L232.825 45.3675C255.696 27.5792 267.131 18.685 280.377 15.274C292.029 12.2735 304.608 12.1632 316.311 14.9588C329.615 18.1369 341.205 26.8291 364.384 44.2136L507.861 151.822C531.04 169.206 542.63 177.898 547.033 188C549.111 192.77 550.099 197.748 549.992 202.721C549.997 202.804 550 202.888 550 202.972V393.94C550.007 398.491 549.099 403.048 547.273 407.446C543.049 417.623 531.614 426.518 508.743 444.306L367.175 554.414C344.304 572.203 332.869 581.097 319.622 584.508C307.971 587.508 295.392 587.618 283.689 584.823C270.385 581.645 258.795 572.953 235.616 555.568L92.1384 447.96C68.9593 430.576 57.3697 421.883 52.9673 411.782C51.0111 407.293 50.0216 402.62 50.0003 397.94L50 397.786V206.908C50 206.811 50.0035 206.715 50.0102 206.62Z" fill="url(#paint7_radial_5740_494)" />
    </g>
    <g style="mix-blend-mode:multiply" opacity="0.9">
        <path d="M304.47 229.32C285.724 234.806 267.978 242.125 251.676 251.091C251.526 251.171 251.413 251.285 251.353 251.417C251.292 251.549 251.288 251.691 251.34 251.825C252.732 255.52 254.89 260.074 256.75 263.524C239.281 273.595 224.19 285.332 211.636 298.614C207.013 297.202 201.014 295.745 196.144 294.755C195.968 294.721 195.783 294.729 195.613 294.778C195.443 294.826 195.296 294.912 195.19 295.025C183.742 307.634 174.483 321.319 167.647 335.736C167.585 335.857 167.574 335.989 167.614 336.114C180.768 385.065 211.543 418.854 252.297 444.167C252.398 444.228 252.515 444.273 252.639 444.298C252.763 444.324 252.893 444.331 253.021 444.318C282.464 440.612 306.441 433.615 327.543 424.926C327.705 424.857 327.836 424.752 327.919 424.625C328.002 424.498 328.032 424.355 328.005 424.215C326.547 417.323 324.39 410.536 321.467 403.91C321.427 403.82 321.363 403.736 321.277 403.666C321.192 403.596 321.089 403.54 320.973 403.503C320.858 403.466 320.733 403.448 320.607 403.45C320.482 403.452 320.358 403.475 320.244 403.516C312.813 406.143 305.187 408.231 297.414 409.912C297.271 409.942 297.121 409.944 296.977 409.919C296.833 409.894 296.699 409.842 296.588 409.768C296.477 409.694 296.391 409.6 296.339 409.494C296.286 409.389 296.269 409.275 296.288 409.163C296.536 407.769 296.755 406.351 296.917 404.964C296.931 404.84 296.99 404.722 297.087 404.623C297.185 404.524 297.316 404.447 297.467 404.402C344.707 390.491 379.671 363.297 396.641 327.266C396.695 327.148 396.791 327.044 396.92 326.965C397.048 326.887 397.203 326.838 397.366 326.824C399.179 326.674 401.039 326.489 402.868 326.267C403.014 326.25 403.163 326.26 403.302 326.298C403.441 326.335 403.566 326.398 403.666 326.481C403.766 326.564 403.837 326.664 403.874 326.773C403.911 326.883 403.912 326.997 403.877 327.107C401.87 333.115 399.203 338.986 395.904 344.656C395.854 344.745 395.828 344.84 395.829 344.937C395.83 345.033 395.857 345.128 395.91 345.216C395.962 345.303 396.038 345.381 396.133 345.445C396.227 345.508 396.338 345.555 396.459 345.584C405.239 347.641 414.162 349.165 423.141 350.207C423.326 350.229 423.515 350.206 423.682 350.142C423.849 350.077 423.986 349.974 424.072 349.847C435.14 333.514 443.864 315.077 448.18 292.527C448.199 292.431 448.191 292.332 448.156 292.238C448.121 292.144 448.06 292.057 447.978 291.982C408.951 256.426 360.47 236.881 304.964 229.298C304.801 229.26 304.627 229.268 304.47 229.32ZM294.704 376.47C284.981 384.033 267.921 383.479 256.811 375.145C245.701 366.813 244.51 353.917 254.389 346.233C264.344 338.489 281.405 339.164 292.281 347.558C303.391 355.891 304.582 368.787 294.704 376.47ZM360.276 325.47C350.553 333.032 333.494 332.478 322.383 324.145C311.273 315.812 310.081 302.917 319.96 295.233C329.916 287.49 346.976 288.164 357.853 296.558C368.963 304.891 370.232 317.726 360.276 325.47Z" fill="#EEF3FF" />
    </g>
    <g style="mix-blend-mode:multiply" opacity="0.6">
        <path d="M304.47 166.32C285.724 171.806 267.978 179.125 251.676 188.091C251.526 188.171 251.413 188.285 251.353 188.417C251.292 188.549 251.288 188.691 251.34 188.825C252.732 192.52 254.89 197.074 256.75 200.524C239.281 210.595 224.19 222.333 211.636 235.614C207.013 234.202 201.014 232.745 196.144 231.755C195.968 231.721 195.783 231.729 195.613 231.778C195.443 231.826 195.296 231.912 195.19 232.025C183.742 244.634 174.483 258.319 167.647 272.736C167.585 272.857 167.574 272.989 167.614 273.114C180.768 322.065 211.543 355.854 252.297 381.167C252.398 381.228 252.515 381.273 252.639 381.298C252.763 381.324 252.893 381.331 253.021 381.318C282.464 377.612 306.441 370.615 327.543 361.926C327.705 361.857 327.836 361.752 327.919 361.625C328.002 361.498 328.032 361.355 328.005 361.215C326.547 354.323 324.39 347.536 321.467 340.91C321.427 340.82 321.363 340.736 321.277 340.666C321.192 340.596 321.089 340.54 320.973 340.503C320.858 340.466 320.733 340.448 320.607 340.45C320.482 340.452 320.358 340.475 320.244 340.516C312.813 343.143 305.187 345.231 297.414 346.912C297.271 346.942 297.121 346.944 296.977 346.919C296.833 346.894 296.699 346.842 296.588 346.768C296.477 346.694 296.391 346.6 296.339 346.494C296.286 346.389 296.269 346.275 296.288 346.163C296.536 344.769 296.755 343.351 296.917 341.964C296.931 341.84 296.99 341.722 297.087 341.623C297.185 341.524 297.316 341.447 297.467 341.402C344.707 327.491 379.671 300.297 396.641 264.266C396.695 264.148 396.791 264.044 396.92 263.965C397.048 263.887 397.203 263.838 397.366 263.824C399.179 263.674 401.039 263.489 402.868 263.267C403.014 263.25 403.163 263.26 403.302 263.298C403.441 263.335 403.566 263.398 403.666 263.481C403.766 263.564 403.837 263.664 403.874 263.773C403.911 263.883 403.912 263.997 403.877 264.107C401.87 270.115 399.203 275.986 395.904 281.656C395.854 281.745 395.828 281.84 395.829 281.937C395.83 282.033 395.857 282.128 395.91 282.216C395.962 282.303 396.038 282.381 396.133 282.445C396.227 282.508 396.338 282.555 396.459 282.584C405.239 284.641 414.162 286.165 423.141 287.207C423.326 287.229 423.515 287.206 423.682 287.142C423.849 287.077 423.986 286.974 424.072 286.847C435.14 270.514 443.864 252.077 448.18 229.527C448.199 229.431 448.191 229.332 448.156 229.238C448.121 229.144 448.06 229.057 447.978 228.982C408.951 193.426 360.47 173.881 304.964 166.298C304.801 166.26 304.627 166.268 304.47 166.32ZM294.704 313.47C284.981 321.033 267.921 320.479 256.811 312.145C245.701 303.813 244.51 290.917 254.389 283.233C264.344 275.489 281.405 276.164 292.281 284.558C303.391 292.891 304.582 305.787 294.704 313.47ZM360.276 262.47C350.553 270.032 333.494 269.478 322.383 261.145C311.273 252.812 310.081 239.917 319.96 232.233C329.916 224.49 346.976 225.164 357.853 233.558C368.963 241.891 370.232 254.726 360.276 262.47Z" fill="#E0E9FF" />
    </g>
    <g style="mix-blend-mode:darken" opacity="0.8">
        <path d="M304.47 102.32C285.724 107.806 267.978 115.125 251.676 124.091C251.526 124.171 251.413 124.285 251.353 124.417C251.292 124.549 251.288 124.691 251.34 124.825C252.732 128.52 254.89 133.074 256.75 136.524C239.281 146.595 224.19 158.333 211.636 171.614C207.013 170.202 201.014 168.745 196.144 167.755C195.968 167.721 195.783 167.729 195.613 167.778C195.443 167.826 195.296 167.912 195.19 168.025C183.742 180.634 174.483 194.319 167.647 208.736C167.585 208.857 167.574 208.989 167.614 209.114C180.768 258.065 211.543 291.854 252.297 317.167C252.398 317.228 252.515 317.273 252.639 317.298C252.763 317.324 252.893 317.331 253.021 317.318C282.464 313.612 306.441 306.615 327.543 297.926C327.705 297.857 327.836 297.752 327.919 297.625C328.002 297.498 328.032 297.355 328.005 297.215C326.547 290.323 324.39 283.536 321.467 276.91C321.427 276.82 321.363 276.736 321.277 276.666C321.192 276.596 321.089 276.54 320.973 276.503C320.858 276.466 320.733 276.448 320.607 276.45C320.482 276.452 320.358 276.475 320.244 276.516C312.813 279.143 305.187 281.231 297.414 282.912C297.271 282.942 297.121 282.944 296.977 282.919C296.833 282.894 296.699 282.842 296.588 282.768C296.477 282.694 296.391 282.6 296.339 282.494C296.286 282.389 296.269 282.275 296.288 282.163C296.536 280.769 296.755 279.351 296.917 277.964C296.931 277.84 296.99 277.722 297.087 277.623C297.185 277.524 297.316 277.447 297.467 277.402C344.707 263.491 379.671 236.297 396.641 200.266C396.695 200.148 396.791 200.044 396.92 199.965C397.048 199.887 397.203 199.838 397.366 199.824C399.179 199.674 401.039 199.489 402.868 199.267C403.014 199.25 403.163 199.26 403.302 199.298C403.441 199.335 403.566 199.398 403.666 199.481C403.766 199.564 403.837 199.664 403.874 199.773C403.911 199.883 403.912 199.997 403.877 200.107C401.87 206.115 399.203 211.986 395.904 217.656C395.854 217.745 395.828 217.84 395.829 217.937C395.83 218.033 395.857 218.128 395.91 218.216C395.962 218.303 396.038 218.381 396.133 218.445C396.227 218.508 396.338 218.555 396.459 218.584C405.239 220.641 414.162 222.165 423.141 223.207C423.326 223.229 423.515 223.206 423.682 223.142C423.849 223.077 423.986 222.974 424.072 222.847C435.14 206.514 443.864 188.077 448.18 165.527C448.199 165.431 448.191 165.332 448.156 165.238C448.121 165.144 448.06 165.057 447.978 164.982C408.951 129.426 360.47 109.881 304.964 102.298C304.801 102.26 304.627 102.268 304.47 102.32ZM294.704 249.47C284.981 257.033 267.921 256.479 256.811 248.145C245.701 239.813 244.51 226.917 254.389 219.233C264.344 211.489 281.405 212.164 292.281 220.558C303.391 228.891 304.582 241.787 294.704 249.47ZM360.276 198.47C350.553 206.032 333.494 205.478 322.383 197.145C311.273 188.812 310.081 175.917 319.96 168.233C329.916 160.49 346.976 161.164 357.853 169.558C368.963 177.891 370.232 190.726 360.276 198.47Z" fill="#5865F2" />
    </g>
    <g style="mix-blend-mode:soft-light" opacity="0.5">
        <path fill-rule="evenodd" clip-rule="evenodd" d="M175 318.106V510.106L235.616 555.568L235.616 555.568L235.616 555.569C258.795 572.953 270.385 581.645 283.689 584.823C295.392 587.618 307.971 587.508 319.622 584.508C332.869 581.097 344.304 572.203 367.175 554.414L367.175 554.414L425 509.439V317.439L367.175 362.414C344.304 380.203 332.869 389.097 319.622 392.508C307.971 395.508 295.392 395.618 283.689 392.823C270.385 389.645 258.795 380.953 235.616 363.568L175 318.106Z" fill="url(#paint8_linear_5740_494)" />
    </g>
    <defs>
        <filter id="filter0_f_5740_494" x="40" y="2.93994" width="520" height="593.902" filterUnits="userSpaceOnUse" color-interpolation-filters="sRGB">
            <feFlood flood-opacity="0" result="BackgroundImageFix" />
            <feBlend mode="normal" in="SourceGraphic" in2="BackgroundImageFix" result="shape" />
            <feGaussianBlur stdDeviation="5" result="effect1_foregroundBlur_5740_494" />
        </filter>
        <linearGradient id="paint0_linear_5740_494" x1="300" y1="204.94" x2="300" y2="586.842" gradientUnits="userSpaceOnUse">
            <stop stop-color="#5865F2" />
            <stop offset="0.5" stop-color="#5865F2" stop-opacity="0" />
            <stop offset="1" stop-color="#5865F2" stop-opacity="0" />
        </linearGradient>
        <linearGradient id="paint1_linear_5740_494" x1="550" y1="391.721" x2="300" y2="586.721" gradientUnits="userSpaceOnUse">
            <stop stop-color="#4445E7" />
            <stop offset="1" stop-color="#5865F2" stop-opacity="0" />
        </linearGradient>
        <linearGradient id="paint2_linear_5740_494" x1="300" y1="140.94" x2="300" y2="522.842" gradientUnits="userSpaceOnUse">
            <stop stop-color="#A4B9FD" stop-opacity="0.25" />
            <stop offset="0.5" stop-color="#A4B9FD" stop-opacity="0.25" />
            <stop offset="1" stop-color="#A4B9FD" stop-opacity="0" />
        </linearGradient>
        <linearGradient id="paint3_linear_5740_494" x1="550" y1="327.721" x2="300" y2="522.721" gradientUnits="userSpaceOnUse">
            <stop stop-color="#8093F9" />
            <stop offset="1" stop-color="#A4B9FD" stop-opacity="0" />
        </linearGradient>
        <linearGradient id="paint4_linear_5740_494" x1="550" y1="263.94" x2="300" y2="458.94" gradientUnits="userSpaceOnUse">
            <stop stop-color="#C6D6FF" />
            <stop offset="1" stop-color="#E0E9FF" stop-opacity="0" />
        </linearGradient>
        <linearGradient id="paint5_linear_5740_494" x1="300" y1="76.9399" x2="300" y2="458.842" gradientUnits="userSpaceOnUse">
            <stop stop-color="#EEF3FF" />
            <stop offset="0.5" stop-color="#EEF3FF" stop-opacity="0.75" />
            <stop offset="1" stop-color="#EEF3FF" stop-opacity="0" />
        </linearGradient>
        <linearGradient id="paint6_linear_5740_494" x1="50" y1="12.9399" x2="550" y2="394.94" gradientUnits="userSpaceOnUse">
            <stop offset="0.223958" stop-color="#EEF3FF" stop-opacity="0.5" />
            <stop offset="0.776042" stop-color="white" />
        </linearGradient>
        <radialGradient id="paint7_radial_5740_494" cx="0" cy="0" r="1" gradientUnits="userSpaceOnUse" gradientTransform="translate(300 299.891) rotate(90) scale(286.951 250)">
            <stop stop-color="#D9D9D9" />
            <stop offset="1" stop-color="#D9D9D9" stop-opacity="0" />
        </radialGradient>
        <linearGradient id="paint8_linear_5740_494" x1="175" y1="443.94" x2="425" y2="443.94" gradientUnits="userSpaceOnUse">
            <stop stop-color="white" stop-opacity="0" />
            <stop offset="0.5" stop-color="white" />
            <stop offset="1" stop-color="white" stop-opacity="0" />
        </linearGradient>
    </defs>
</svg>