<svg width="941" height="207" viewBox="0 0 941 207" fill="none" xmlns="http://www.w3.org/2000/svg">
    <path d="M46.5863 113.597C46.5518 112.195 46.8157 110.787 47.3786 109.431C48.6107 106.463 51.946 103.869 58.6167 98.6804L99.9072 66.5655C106.578 61.3773 109.913 58.7831 113.777 57.7882C117.175 56.9131 120.844 56.8809 124.257 57.6963C128.138 58.6233 131.518 61.1585 138.279 66.229L180.126 97.6146C186.887 102.685 190.267 105.22 191.551 108.167C192.157 109.558 192.445 111.01 192.414 112.46C192.416 112.484 192.417 112.509 192.417 112.534V130.899C192.419 132.227 192.154 133.556 191.621 134.838C190.389 137.807 187.054 140.401 180.383 145.589L139.093 177.704C132.422 182.892 129.087 185.487 125.223 186.481C121.825 187.357 118.156 187.389 114.743 186.573C110.862 185.646 107.482 183.111 100.721 178.041L58.8737 146.655C52.1131 141.585 48.7328 139.049 47.4488 136.103C46.8782 134.794 46.5895 133.431 46.5833 132.066V113.682C46.5833 113.653 46.5843 113.625 46.5863 113.597Z" fill="#1A1A4C" />
    <path d="M46.5863 94.9307C46.5518 93.528 46.8157 92.1205 47.3786 90.7646C48.6107 87.7961 51.946 85.202 58.6167 80.0137L99.9072 47.8988C106.578 42.7106 109.913 40.1164 113.777 39.1215C117.175 38.2464 120.844 38.2142 124.257 39.0296C128.138 39.9566 131.518 42.4918 138.279 47.5623L180.126 78.9479C186.887 84.0184 190.267 86.5536 191.551 89.5C192.157 90.8912 192.445 92.3431 192.414 93.7935C192.416 93.8178 192.417 93.8422 192.417 93.8668V112.232C192.419 113.56 192.154 114.889 191.621 116.172C190.389 119.14 187.054 121.734 180.383 126.923L139.093 159.037C132.422 164.226 129.087 166.82 125.223 167.815C121.825 168.69 118.156 168.722 114.743 167.907C110.862 166.98 107.482 164.444 100.721 159.374L58.8737 127.988C52.1131 122.918 48.7328 120.383 47.4488 117.436C46.8782 116.127 46.5895 114.764 46.5833 113.399V95.0148C46.5833 94.9866 46.5843 94.9585 46.5863 94.9307Z" fill="#5865F2" />
    <g style="mix-blend-mode:color-burn">
        <path d="M58.8737 146.655C52.1131 141.585 48.7328 139.049 47.4488 136.103C46.3193 133.511 46.2947 130.709 47.3786 128.098C48.6107 125.129 51.946 122.535 58.6167 117.347L99.9072 85.2322C106.578 80.0439 109.913 77.4498 113.777 76.4549C117.175 75.5798 120.844 75.5476 124.257 76.363C128.138 77.2899 131.518 79.8252 138.279 84.8956L180.126 116.281C186.887 121.352 190.267 123.887 191.551 126.833C192.681 129.425 192.705 132.227 191.621 134.838C190.389 137.807 187.054 140.401 180.383 145.589L139.093 177.704C132.422 182.892 129.087 185.487 125.223 186.481C121.825 187.357 118.156 187.389 114.743 186.573C110.862 185.646 107.482 183.111 100.721 178.041L58.8737 146.655Z" fill="url(#paint0_linear_5740_524)" />
    </g>
    <g style="mix-blend-mode:color-dodge" opacity="0.75">
        <path d="M47.3786 109.431C46.8157 110.787 46.5518 112.195 46.5863 113.597C46.5843 113.625 46.5833 113.653 46.5833 113.682V132.021V132.066C46.5887 133.26 46.8104 134.453 47.248 135.61C46.805 134.438 46.5833 133.23 46.5833 132.021C46.5833 130.699 46.8483 129.376 47.3786 128.098C48.6107 125.129 51.946 122.535 58.6167 117.347L99.9072 85.2322C106.578 80.0439 109.913 77.4498 113.777 76.4549C117.175 75.5798 120.844 75.5476 124.257 76.363C128.138 77.2899 131.518 79.8252 138.279 84.8956L180.126 116.281C186.887 121.352 190.267 123.887 191.551 126.833C192.126 128.152 192.414 129.525 192.417 130.899V112.534C192.417 112.509 192.416 112.484 192.414 112.46C192.445 111.01 192.157 109.558 191.551 108.167C190.267 105.22 186.887 102.685 180.126 97.6147L138.279 66.229C131.518 61.1585 128.138 58.6233 124.257 57.6963C120.844 56.8809 117.175 56.9131 113.777 57.7882C109.913 58.7831 106.578 61.3773 99.9072 66.5655L58.6167 98.6804C51.946 103.869 48.6107 106.463 47.3786 109.431Z" fill="#1A1A4C" />
    </g>
    <g style="mix-blend-mode:darken">
        <path d="M119.5 187.224C121.431 187.249 123.368 187.023 125.223 186.545C129.087 185.55 132.422 182.956 139.093 177.768L180.383 145.653C187.054 140.465 190.389 137.87 191.621 134.902C192.154 133.619 192.419 132.29 192.417 130.963V112.597C192.417 112.573 192.416 112.548 192.414 112.524C192.388 113.776 192.123 115.026 191.621 116.235C190.389 119.204 187.054 121.798 180.383 126.986L139.093 159.101C132.422 164.289 129.087 166.884 125.223 167.878C123.368 168.356 121.431 168.583 119.5 168.557V187.224Z" fill="url(#paint1_linear_5740_524)" />
    </g>
    <path d="M46.5863 76.2641C46.5518 74.8613 46.8157 73.4539 47.3786 72.0979C48.6107 69.1295 51.946 66.5354 58.6167 61.3471L99.9072 29.2322C106.578 24.0439 109.913 21.4498 113.777 20.4549C117.175 19.5798 120.844 19.5476 124.257 20.363C128.138 21.2899 131.518 23.8252 138.279 28.8956L180.126 60.2813C186.887 65.3517 190.267 67.887 191.551 70.8333C192.157 72.2246 192.445 73.6764 192.414 75.1268C192.416 75.1511 192.417 75.1755 192.417 75.2002V93.5658C192.419 94.8933 192.154 96.2222 191.621 97.505C190.389 100.473 187.054 103.068 180.383 108.256L139.093 140.371C132.422 145.559 129.087 148.153 125.223 149.148C121.825 150.023 118.156 150.055 114.743 149.24C110.862 148.313 107.482 145.778 100.721 140.707L58.8737 109.322C52.1131 104.251 48.7328 101.716 47.4488 98.7696C46.8782 97.4604 46.5895 96.0974 46.5833 94.7325V76.3482C46.5833 76.3199 46.5843 76.2918 46.5863 76.2641Z" fill="#C6D6FF" />
    <g style="mix-blend-mode:multiply">
        <path d="M58.8737 127.988C52.1131 122.918 48.7328 120.383 47.4488 117.436C46.3193 114.845 46.2947 112.042 47.3786 109.431C48.6107 106.463 51.946 103.869 58.6167 98.6804L99.9072 66.5655C106.578 61.3773 109.913 58.7831 113.777 57.7882C117.175 56.9131 120.844 56.8809 124.257 57.6963C128.138 58.6233 131.518 61.1585 138.279 66.229L180.126 97.6146C186.887 102.685 190.267 105.22 191.551 108.167C192.681 110.758 192.705 113.561 191.621 116.172C190.389 119.14 187.054 121.734 180.383 126.923L139.093 159.037C132.422 164.226 129.087 166.82 125.223 167.815C121.825 168.69 118.156 168.722 114.743 167.907C110.862 166.98 107.482 164.444 100.721 159.374L58.8737 127.988Z" fill="url(#paint2_linear_5740_524)" />
    </g>
    <g style="mix-blend-mode:hard-light" opacity="0.7">
        <path d="M47.3786 90.7646C46.8157 92.1205 46.5518 93.528 46.5863 94.9307C46.5843 94.9585 46.5833 94.9865 46.5833 95.0148V113.354V113.399C46.5887 114.593 46.8104 115.786 47.248 116.943C46.805 115.772 46.5833 114.564 46.5833 113.354C46.5833 112.032 46.8483 110.709 47.3786 109.431C48.6107 106.463 51.946 103.869 58.6167 98.6804L99.9072 66.5655C106.578 61.3772 109.913 58.7831 113.777 57.7882C117.175 56.9131 120.844 56.8809 124.257 57.6963C128.138 58.6232 131.518 61.1585 138.279 66.2289L180.126 97.6146C186.887 102.685 190.267 105.22 191.551 108.167C192.126 109.485 192.414 110.858 192.417 112.232V93.8668C192.417 93.8422 192.416 93.8177 192.414 93.7935C192.445 92.3431 192.157 90.8912 191.551 89.5C190.267 86.5537 186.887 84.0184 180.126 78.948L138.279 47.5623C131.518 42.4918 128.138 39.9566 124.257 39.0296C120.844 38.2142 117.175 38.2464 113.777 39.1215C109.913 40.1164 106.578 42.7106 99.9072 47.8988L58.6167 80.0137C51.946 85.202 48.6107 87.7961 47.3786 90.7646Z" fill="#5865F2" />
    </g>
    <g style="mix-blend-mode:multiply">
        <path d="M119.5 168.557C121.431 168.583 123.368 168.356 125.223 167.878C129.087 166.884 132.422 164.289 139.093 159.101L180.383 126.986C187.054 121.798 190.389 119.204 191.621 116.235C192.154 114.953 192.419 113.624 192.417 112.296V93.9305C192.417 93.906 192.416 93.8817 192.414 93.8575C192.388 95.109 192.123 96.3593 191.621 97.5687C190.389 100.537 187.054 103.131 180.383 108.32L139.093 140.435C132.422 145.623 129.087 148.217 125.223 149.212C123.368 149.69 121.431 149.916 119.5 149.891V168.557Z" fill="url(#paint3_linear_5740_524)" />
    </g>
    <g style="mix-blend-mode:multiply">
        <path d="M119.5 149.955C121.431 149.98 123.368 149.754 125.223 149.276C129.087 148.281 132.422 145.687 139.093 140.498L180.383 108.384C187.054 103.195 190.389 100.601 191.621 97.6327C192.154 96.3499 192.419 95.0209 192.417 93.6935V75.3278C192.417 75.3033 192.416 75.2789 192.414 75.2548C192.388 76.5062 192.123 77.7566 191.621 78.966C190.389 81.9345 187.054 84.5286 180.383 89.7169L139.093 121.832C132.422 127.02 129.087 129.614 125.223 130.609C123.368 131.087 121.431 131.313 119.5 131.288V149.955Z" fill="url(#paint4_linear_5740_524)" />
    </g>
    <g style="mix-blend-mode:multiply">
        <path d="M47.3786 72.0979C46.8157 73.4538 46.5518 74.8613 46.5863 76.264C46.5843 76.2918 46.5833 76.3199 46.5833 76.3482V94.6876V94.7325C46.5887 95.9268 46.8104 97.1196 47.248 98.2762C46.805 97.1051 46.5833 95.8969 46.5833 94.6876C46.5833 93.3655 46.8483 92.0422 47.3786 90.7646C48.6107 87.7961 51.946 85.202 58.6167 80.0137L99.9072 47.8989C106.578 42.7106 109.913 40.1164 113.777 39.1216C117.175 38.2464 120.844 38.2143 124.257 39.0296C128.138 39.9566 131.518 42.4918 138.279 47.5623L180.126 78.9479C186.887 84.0184 190.267 86.5536 191.551 89.5C192.126 90.8184 192.414 92.1913 192.417 93.5658V75.2002C192.417 75.1755 192.416 75.1511 192.414 75.1268C192.445 73.6764 192.157 72.2245 191.551 70.8333C190.267 67.887 186.887 65.3517 180.126 60.2814L138.279 28.8956C131.518 23.8252 128.138 21.2899 124.257 20.363C120.844 19.5476 117.175 19.5798 113.777 20.4549C109.913 21.4498 106.578 24.0439 99.9072 29.2322L58.6167 61.3471C51.946 66.5353 48.6107 69.1295 47.3786 72.0979Z" fill="#C6D6FF" />
    </g>
    <g style="mix-blend-mode:multiply">
        <path d="M58.8737 109.322C52.1131 104.251 48.7328 101.716 47.4488 98.7696C46.3193 96.1779 46.2947 93.3757 47.3786 90.7646C48.6107 87.7961 51.946 85.202 58.6167 80.0137L99.9072 47.8988C106.578 42.7106 109.913 40.1164 113.777 39.1215C117.175 38.2464 120.844 38.2142 124.257 39.0296C128.138 39.9566 131.518 42.4918 138.279 47.5623L180.126 78.9479C186.887 84.0184 190.267 86.5536 191.551 89.5C192.681 92.0917 192.705 94.8939 191.621 97.505C190.389 100.473 187.054 103.068 180.383 108.256L139.093 140.371C132.422 145.559 129.087 148.153 125.223 149.148C121.825 150.023 118.156 150.055 114.743 149.24C110.862 148.313 107.482 145.778 100.721 140.707L58.8737 109.322Z" fill="url(#paint5_linear_5740_524)" />
    </g>
    <g style="mix-blend-mode:luminosity">
        <path d="M58.8737 90.655C52.1131 85.5845 48.7328 83.0493 47.4488 80.1029C46.3193 77.5113 46.2947 74.709 47.3786 72.0979C48.6107 69.1295 51.946 66.5353 58.6167 61.3471L99.9072 29.2322C106.578 24.0439 109.913 21.4498 113.777 20.4549C117.175 19.5798 120.844 19.5476 124.257 20.363C128.138 21.2899 131.518 23.8252 138.279 28.8956L180.126 60.2813C186.887 65.3517 190.267 67.887 191.551 70.8333C192.681 73.425 192.705 76.2273 191.621 78.8384C190.389 81.8068 187.054 84.4009 180.383 89.5892L139.093 121.704C132.422 126.892 129.087 129.487 125.223 130.481C121.825 131.357 118.156 131.389 114.743 130.573C110.862 129.646 107.482 127.111 100.721 122.041L58.8737 90.655Z" fill="url(#paint6_linear_5740_524)" />
    </g>
    <g style="mix-blend-mode:soft-light" opacity="0.5" filter="url(#filter0_f_5740_524)">
        <path d="M46.5863 76.2641C46.5518 74.8613 46.8157 73.4539 47.3786 72.0979C48.6107 69.1295 51.946 66.5354 58.6167 61.3471L99.9072 29.2322C106.578 24.0439 109.913 21.4498 113.777 20.4549C117.175 19.5798 120.844 19.5476 124.257 20.363C128.138 21.2899 131.518 23.8252 138.279 28.8956L180.126 60.2813C186.887 65.3517 190.267 67.887 191.551 70.8333C192.157 72.2246 192.445 73.6764 192.414 75.1268C192.416 75.1511 192.417 75.1755 192.417 75.2002V130.899C192.419 132.227 192.154 133.556 191.621 134.838C190.389 137.807 187.054 140.401 180.383 145.589L139.093 177.704C132.422 182.892 129.087 185.487 125.223 186.481C121.825 187.357 118.156 187.389 114.743 186.573C110.862 185.646 107.482 183.111 100.721 178.041L58.8737 146.655C52.1131 141.585 48.7328 139.049 47.4488 136.103C46.8782 134.794 46.5896 133.431 46.5834 132.066L46.5833 132.021V76.3482C46.5833 76.3199 46.5843 76.2918 46.5863 76.2641Z" fill="url(#paint7_radial_5740_524)" />
    </g>
    <g style="mix-blend-mode:multiply" opacity="0.9">
        <path d="M120.804 82.8849C115.336 84.4852 110.16 86.6197 105.405 89.2348C105.362 89.2582 105.329 89.2915 105.311 89.3299C105.294 89.3684 105.292 89.41 105.307 89.4489C105.714 90.5266 106.343 91.8548 106.886 92.8613C101.79 95.7987 97.3888 99.222 93.727 103.096C92.3788 102.684 90.6291 102.259 89.2087 101.97C89.1574 101.96 89.1035 101.963 89.0539 101.977C89.0042 101.991 88.9612 102.016 88.9305 102.049C85.5914 105.727 82.8909 109.718 80.8971 113.923C80.879 113.958 80.8756 113.997 80.8874 114.033C84.7238 128.311 93.7 138.166 105.587 145.549C105.616 145.566 105.65 145.579 105.686 145.587C105.723 145.595 105.761 145.597 105.798 145.593C114.385 144.512 121.379 142.471 127.533 139.937C127.581 139.917 127.619 139.886 127.643 139.849C127.667 139.812 127.676 139.77 127.668 139.729C127.243 137.719 126.614 135.74 125.761 133.807C125.75 133.781 125.731 133.756 125.706 133.736C125.681 133.715 125.651 133.699 125.617 133.688C125.583 133.678 125.547 133.672 125.51 133.673C125.474 133.674 125.438 133.68 125.405 133.692C123.237 134.458 121.013 135.067 118.746 135.558C118.704 135.566 118.66 135.567 118.618 135.56C118.576 135.552 118.537 135.537 118.505 135.516C118.472 135.494 118.447 135.467 118.432 135.436C118.417 135.405 118.412 135.372 118.417 135.339C118.49 134.933 118.553 134.519 118.601 134.114C118.605 134.078 118.622 134.044 118.65 134.015C118.679 133.986 118.717 133.964 118.761 133.951C132.54 129.893 142.737 121.962 147.687 111.453C147.703 111.418 147.731 111.388 147.768 111.365C147.806 111.342 147.851 111.328 147.898 111.324C148.427 111.28 148.97 111.226 149.503 111.161C149.546 111.156 149.589 111.159 149.63 111.17C149.67 111.181 149.707 111.199 149.736 111.224C149.765 111.248 149.786 111.277 149.797 111.309C149.807 111.341 149.808 111.374 149.797 111.406C149.212 113.159 148.434 114.871 147.472 116.525C147.457 116.551 147.45 116.578 147.45 116.607C147.45 116.635 147.458 116.662 147.474 116.688C147.489 116.713 147.511 116.736 147.539 116.755C147.566 116.773 147.599 116.787 147.634 116.795C150.195 117.395 152.797 117.84 155.416 118.144C155.47 118.15 155.525 118.143 155.574 118.125C155.623 118.106 155.662 118.076 155.688 118.039C158.916 113.275 161.46 107.898 162.719 101.321C162.725 101.292 162.722 101.263 162.712 101.236C162.702 101.209 162.684 101.183 162.66 101.162C151.277 90.7909 137.137 85.0903 120.948 82.8787C120.9 82.8675 120.849 82.8698 120.804 82.8849ZM117.955 125.804C115.119 128.01 110.144 127.848 106.903 125.417C103.663 122.987 103.315 119.226 106.197 116.985C109.1 114.726 114.076 114.923 117.249 117.371C120.489 119.802 120.836 123.563 117.955 125.804ZM137.08 110.929C134.245 113.134 129.269 112.973 126.028 110.542C122.788 108.112 122.44 104.351 125.322 102.11C128.225 99.8511 133.201 100.048 136.374 102.496C139.614 104.927 139.984 108.67 137.08 110.929Z" fill="#EEF3FF" />
    </g>
    <g style="mix-blend-mode:multiply" opacity="0.6">
        <path d="M120.804 64.5099C115.336 66.1102 110.16 68.2447 105.405 70.8598C105.362 70.8832 105.329 70.9165 105.311 70.9549C105.294 70.9934 105.292 71.035 105.307 71.0739C105.714 72.1516 106.343 73.4798 106.886 74.4863C101.79 77.4237 97.3888 80.847 93.727 84.7207C92.3788 84.3089 90.6291 83.884 89.2087 83.5951C89.1574 83.5854 89.1035 83.5878 89.0539 83.6019C89.0042 83.6159 88.9612 83.6411 88.9305 83.6741C85.5914 87.3516 82.8909 91.3431 80.8971 95.548C80.879 95.5832 80.8756 95.6218 80.8874 95.6584C84.7238 109.936 93.7 119.791 105.587 127.174C105.616 127.191 105.65 127.204 105.686 127.212C105.723 127.22 105.761 127.222 105.798 127.218C114.385 126.137 121.379 124.096 127.533 121.562C127.581 121.542 127.619 121.511 127.643 121.474C127.667 121.437 127.676 121.395 127.668 121.354C127.243 119.344 126.614 117.365 125.761 115.432C125.75 115.406 125.731 115.381 125.706 115.361C125.681 115.34 125.651 115.324 125.617 115.313C125.583 115.303 125.547 115.297 125.51 115.298C125.474 115.299 125.438 115.305 125.405 115.317C123.237 116.083 121.013 116.692 118.746 117.183C118.704 117.191 118.66 117.192 118.618 117.185C118.576 117.177 118.537 117.162 118.505 117.141C118.472 117.119 118.447 117.092 118.432 117.061C118.417 117.03 118.412 116.997 118.417 116.964C118.49 116.558 118.553 116.144 118.601 115.739C118.605 115.703 118.622 115.669 118.65 115.64C118.679 115.611 118.717 115.589 118.761 115.576C132.54 111.518 142.737 103.587 147.687 93.0777C147.703 93.0432 147.731 93.0127 147.768 92.9899C147.806 92.967 147.851 92.9527 147.898 92.9486C148.427 92.9049 148.97 92.8509 149.503 92.7863C149.546 92.7813 149.589 92.7843 149.63 92.7952C149.67 92.8061 149.707 92.8244 149.736 92.8486C149.765 92.8728 149.786 92.9021 149.797 92.9339C149.807 92.9658 149.808 92.9992 149.797 93.0312C149.212 94.7837 148.434 96.496 147.472 98.1498C147.457 98.1756 147.45 98.2035 147.45 98.2316C147.45 98.2597 147.458 98.2874 147.474 98.3129C147.489 98.3384 147.511 98.3612 147.539 98.3797C147.566 98.3982 147.599 98.412 147.634 98.4202C150.195 99.0204 152.797 99.4647 155.416 99.7687C155.47 99.7751 155.525 99.7685 155.574 99.7496C155.623 99.7308 155.662 99.7008 155.688 99.6638C158.916 94.9 161.46 89.5226 162.719 82.9455C162.725 82.9173 162.722 82.8885 162.712 82.8611C162.702 82.8336 162.684 82.8082 162.66 82.7865C151.277 72.4159 137.137 66.7153 120.948 64.5037C120.9 64.4925 120.849 64.4948 120.804 64.5099ZM117.955 107.429C115.119 109.635 110.144 109.473 106.903 107.042C103.663 104.612 103.315 100.851 106.197 98.6096C109.1 96.3511 114.076 96.5478 117.249 98.9962C120.489 101.427 120.836 105.188 117.955 107.429ZM137.08 92.5537C134.245 94.7594 129.269 94.5978 126.028 92.1673C122.788 89.7369 122.44 85.9757 125.322 83.7346C128.225 81.4761 133.201 81.6728 136.374 84.1212C139.614 86.5515 139.984 90.2952 137.08 92.5537Z" fill="#E0E9FF" />
    </g>
    <g style="mix-blend-mode:darken" opacity="0.8">
        <path d="M120.804 45.8432C115.336 47.4435 110.16 49.578 105.405 52.1932C105.362 52.2165 105.329 52.2498 105.311 52.2882C105.294 52.3267 105.292 52.3683 105.307 52.4072C105.714 53.4849 106.343 54.8132 106.886 55.8196C101.79 58.757 97.3888 62.1803 93.727 66.054C92.3788 65.6422 90.6291 65.2173 89.2087 64.9284C89.1574 64.9187 89.1035 64.9211 89.0539 64.9352C89.0042 64.9493 88.9612 64.9744 88.9305 65.0074C85.5914 68.6849 82.8909 72.6764 80.8971 76.8813C80.879 76.9165 80.8756 76.9551 80.8874 76.9917C84.7238 91.2689 93.7 101.124 105.587 108.507C105.616 108.525 105.65 108.538 105.686 108.545C105.723 108.553 105.761 108.555 105.798 108.551C114.385 107.47 121.379 105.429 127.533 102.895C127.581 102.875 127.619 102.844 127.643 102.807C127.667 102.77 127.676 102.728 127.668 102.688C127.243 100.677 126.614 98.698 125.761 96.7656C125.75 96.7391 125.731 96.7148 125.706 96.6943C125.681 96.6738 125.651 96.6576 125.617 96.6467C125.583 96.6359 125.547 96.6306 125.51 96.6312C125.474 96.6319 125.438 96.6384 125.405 96.6505C123.237 97.4168 121.013 98.0257 118.746 98.516C118.704 98.5247 118.66 98.5254 118.618 98.5181C118.576 98.5107 118.537 98.4956 118.505 98.474C118.472 98.4524 118.447 98.425 118.432 98.3942C118.417 98.3634 118.412 98.3301 118.417 98.2974C118.49 97.8909 118.553 97.4774 118.601 97.0727C118.605 97.0368 118.622 97.0024 118.65 96.9734C118.679 96.9445 118.717 96.9221 118.761 96.9088C132.54 92.8515 142.737 84.9199 147.687 74.4111C147.703 74.3765 147.731 74.346 147.768 74.3232C147.806 74.3003 147.851 74.286 147.898 74.2819C148.427 74.2382 148.97 74.1842 149.503 74.1196C149.546 74.1146 149.589 74.1176 149.63 74.1285C149.67 74.1394 149.707 74.1577 149.736 74.1819C149.765 74.2061 149.786 74.2354 149.797 74.2672C149.807 74.2991 149.808 74.3325 149.797 74.3645C149.212 76.117 148.434 77.8293 147.472 79.4831C147.457 79.5089 147.45 79.5368 147.45 79.5649C147.45 79.593 147.458 79.6207 147.474 79.6462C147.489 79.6718 147.511 79.6945 147.539 79.713C147.566 79.7315 147.599 79.7453 147.634 79.7535C150.195 80.3537 152.797 80.798 155.416 81.102C155.47 81.1085 155.525 81.1018 155.574 81.083C155.623 81.0641 155.662 81.0341 155.688 80.9971C158.916 76.2333 161.46 70.8559 162.719 64.2788C162.725 64.2506 162.722 64.2218 162.712 64.1944C162.702 64.167 162.684 64.1415 162.66 64.1198C151.277 53.7492 137.137 48.0486 120.948 45.837C120.9 45.8258 120.849 45.8281 120.804 45.8432ZM117.955 88.7622C115.119 90.9678 110.144 90.8062 106.903 88.3757C103.663 85.9454 103.315 82.184 106.197 79.9429C109.1 77.6844 114.076 77.8811 117.249 80.3295C120.489 82.7598 120.836 86.5212 117.955 88.7622ZM137.08 73.887C134.245 76.0927 129.269 75.9311 126.028 73.5006C122.788 71.0703 122.44 67.309 125.322 65.0679C128.225 62.8094 133.201 63.0061 136.374 65.4545C139.614 67.8848 139.984 71.6285 137.08 73.887Z" fill="#5865F2" />
    </g>
    <g style="mix-blend-mode:soft-light" opacity="0.5">
        <path fill-rule="evenodd" clip-rule="evenodd" d="M83.0417 108.781V164.781L100.721 178.041C107.482 183.111 110.862 185.646 114.743 186.573C118.156 187.389 121.825 187.357 125.223 186.481C129.087 185.487 132.422 182.892 139.093 177.704L155.958 164.586V108.586L139.093 121.704C132.422 126.892 129.087 129.487 125.223 130.481C121.825 131.357 118.156 131.389 114.743 130.573C110.862 129.646 107.482 127.111 100.721 122.041L83.0417 108.781Z" fill="url(#paint8_linear_5740_524)" />
    </g>
    <path d="M239.192 146V55.76H276.568C292.184 55.76 304.301 59.6853 312.92 67.536C321.539 75.3867 325.848 86.48 325.848 100.816C325.848 115.152 321.539 126.288 312.92 134.224C304.301 142.075 292.184 146 276.568 146H239.192ZM262.744 126.928H275.032C283.992 126.928 290.605 124.795 294.872 120.528C299.224 116.176 301.4 109.605 301.4 100.816C301.4 92.0267 299.224 85.4987 294.872 81.232C290.52 76.9653 283.907 74.832 275.032 74.832H262.744V126.928ZM339.561 72.144V51.536H363.497V72.144H339.561ZM340.201 146V83.024H362.985V146H340.201ZM403.209 147.408C397.406 147.408 392.03 146.811 387.081 145.616C382.217 144.421 378.078 142.757 374.665 140.624L379.913 125.904C383.07 127.696 386.74 129.189 390.921 130.384C395.102 131.493 399.241 132.048 403.337 132.048C406.494 132.048 408.756 131.621 410.121 130.768C411.486 129.829 412.169 128.635 412.169 127.184C412.169 125.904 411.7 124.965 410.761 124.368C409.908 123.685 408.67 123.173 407.049 122.832L392.841 120.528C387.55 119.675 383.454 117.755 380.553 114.768C377.652 111.781 376.201 107.899 376.201 103.12C376.201 98.6827 377.438 94.8853 379.913 91.728C382.388 88.4853 385.844 86.0107 390.281 84.304C394.718 82.512 399.796 81.616 405.513 81.616C410.036 81.616 414.516 82.1707 418.953 83.28C423.39 84.304 427.273 86.0107 430.601 88.4L424.969 102.864C422.494 101.157 419.422 99.7493 415.753 98.64C412.084 97.4453 408.798 96.848 405.897 96.848C402.398 96.848 399.924 97.36 398.473 98.384C397.022 99.3227 396.297 100.475 396.297 101.84C396.297 104.144 397.876 105.552 401.033 106.064L415.241 108.496C420.702 109.349 424.884 111.227 427.785 114.128C430.772 116.944 432.265 120.784 432.265 125.648C432.265 132.56 429.62 137.936 424.329 141.776C419.038 145.531 411.998 147.408 403.209 147.408ZM475.669 147.408C468.586 147.408 462.4 146.085 457.109 143.44C451.904 140.795 447.85 136.997 444.949 132.048C442.048 127.099 440.597 121.211 440.597 114.384C440.597 107.557 442.048 101.712 444.949 96.848C447.85 91.8987 451.904 88.144 457.109 85.584C462.4 82.9387 468.586 81.616 475.669 81.616C479.85 81.616 483.989 82.2133 488.085 83.408C492.266 84.5173 495.68 86.096 498.325 88.144L492.309 103.76C490.346 102.224 488.042 101.029 485.397 100.176C482.837 99.2373 480.405 98.768 478.101 98.768C473.578 98.768 470.08 100.133 467.605 102.864C465.13 105.595 463.893 109.435 463.893 114.384C463.893 119.419 465.13 123.344 467.605 126.16C470.08 128.891 473.578 130.256 478.101 130.256C480.405 130.256 482.837 129.829 485.397 128.976C488.042 128.037 490.346 126.8 492.309 125.264L498.325 140.88C495.68 142.928 492.266 144.549 488.085 145.744C483.904 146.853 479.765 147.408 475.669 147.408ZM538.083 147.408C531.086 147.408 524.984 146.085 519.779 143.44C514.574 140.795 510.52 136.997 507.619 132.048C504.718 127.099 503.267 121.253 503.267 114.512C503.267 107.685 504.718 101.84 507.619 96.976C510.52 92.0267 514.574 88.2293 519.779 85.584C524.984 82.9387 531.086 81.616 538.083 81.616C545.08 81.616 551.182 82.9387 556.387 85.584C561.592 88.2293 565.603 92.0267 568.419 96.976C571.32 101.84 572.771 107.685 572.771 114.512C572.771 121.253 571.32 127.099 568.419 132.048C565.603 136.997 561.592 140.795 556.387 143.44C551.182 146.085 545.08 147.408 538.083 147.408ZM538.083 130.64C541.496 130.64 544.312 129.36 546.531 126.8C548.75 124.24 549.859 120.144 549.859 114.512C549.859 108.795 548.75 104.699 546.531 102.224C544.312 99.664 541.496 98.384 538.083 98.384C534.584 98.384 531.726 99.664 529.507 102.224C527.288 104.699 526.179 108.795 526.179 114.512C526.179 120.144 527.288 124.24 529.507 126.8C531.726 129.36 534.584 130.64 538.083 130.64ZM585.131 146V83.024H607.275V93.648C610.176 86.3947 616.448 82.4267 626.091 81.744L632.363 81.232L633.643 100.432L621.227 101.584C616.704 102.011 613.419 103.291 611.371 105.424C609.323 107.472 608.299 110.544 608.299 114.64V146H585.131ZM666.002 147.408C660.626 147.408 655.847 146.085 651.666 143.44C647.57 140.795 644.327 136.997 641.938 132.048C639.634 127.099 638.482 121.253 638.482 114.512C638.482 107.685 639.634 101.84 641.938 96.976C644.327 92.0267 647.57 88.2293 651.666 85.584C655.847 82.9387 660.626 81.616 666.002 81.616C670.013 81.616 673.682 82.4693 677.01 84.176C680.423 85.7973 683.026 87.9307 684.818 90.576V55.76H707.602V146H685.33V137.296C683.709 140.368 681.149 142.843 677.65 144.72C674.151 146.512 670.269 147.408 666.002 147.408ZM673.298 130.64C676.711 130.64 679.527 129.36 681.746 126.8C683.965 124.24 685.074 120.144 685.074 114.512C685.074 108.795 683.965 104.699 681.746 102.224C679.527 99.664 676.711 98.384 673.298 98.384C669.799 98.384 666.941 99.664 664.722 102.224C662.503 104.699 661.394 108.795 661.394 114.512C661.394 120.144 662.503 124.24 664.722 126.8C666.941 129.36 669.799 130.64 673.298 130.64ZM722.721 146V55.76H745.505V108.368H745.761L766.497 83.024H793.249L768.289 112.976L794.145 146H766.881L745.761 119.76H745.505V146H722.721ZM798.251 72.144V51.536H822.187V72.144H798.251ZM798.891 146V83.024H821.675V146H798.891ZM869.835 147.408C860.278 147.408 853.195 145.189 848.587 140.752C843.979 136.315 841.675 129.616 841.675 120.656V99.792H829.899V83.024H841.675V64.72H864.459V83.024H882.379V99.792H864.459V119.888C864.459 126.032 867.574 129.104 873.803 129.104C874.827 129.104 875.936 129.019 877.131 128.848C878.411 128.592 879.819 128.251 881.355 127.824L884.427 144.208C882.464 145.232 880.16 146 877.515 146.512C874.87 147.109 872.31 147.408 869.835 147.408Z" fill="currentcolor" />
    <defs>
        <filter id="filter0_f_5740_524" x="36.5833" y="9.77414" width="165.833" height="187.388" filterUnits="userSpaceOnUse" color-interpolation-filters="sRGB">
            <feFlood flood-opacity="0" result="BackgroundImageFix" />
            <feBlend mode="normal" in="SourceGraphic" in2="BackgroundImageFix" result="shape" />
            <feGaussianBlur stdDeviation="5" result="effect1_foregroundBlur_5740_524" />
        </filter>
        <linearGradient id="paint0_linear_5740_524" x1="119.5" y1="75.7741" x2="119.5" y2="187.162" gradientUnits="userSpaceOnUse">
            <stop stop-color="#5865F2" />
            <stop offset="0.5" stop-color="#5865F2" stop-opacity="0" />
            <stop offset="1" stop-color="#5865F2" stop-opacity="0" />
        </linearGradient>
        <linearGradient id="paint1_linear_5740_524" x1="192.417" y1="130.252" x2="119.5" y2="187.127" gradientUnits="userSpaceOnUse">
            <stop stop-color="#4445E7" />
            <stop offset="1" stop-color="#5865F2" stop-opacity="0" />
        </linearGradient>
        <linearGradient id="paint2_linear_5740_524" x1="119.5" y1="57.1075" x2="119.5" y2="168.495" gradientUnits="userSpaceOnUse">
            <stop stop-color="#A4B9FD" stop-opacity="0.25" />
            <stop offset="0.5" stop-color="#A4B9FD" stop-opacity="0.25" />
            <stop offset="1" stop-color="#A4B9FD" stop-opacity="0" />
        </linearGradient>
        <linearGradient id="paint3_linear_5740_524" x1="192.417" y1="111.585" x2="119.5" y2="168.46" gradientUnits="userSpaceOnUse">
            <stop stop-color="#8093F9" />
            <stop offset="1" stop-color="#A4B9FD" stop-opacity="0" />
        </linearGradient>
        <linearGradient id="paint4_linear_5740_524" x1="192.417" y1="92.9825" x2="119.5" y2="149.857" gradientUnits="userSpaceOnUse">
            <stop stop-color="#C6D6FF" />
            <stop offset="1" stop-color="#E0E9FF" stop-opacity="0" />
        </linearGradient>
        <linearGradient id="paint5_linear_5740_524" x1="119.5" y1="38.4408" x2="119.5" y2="149.829" gradientUnits="userSpaceOnUse">
            <stop stop-color="#EEF3FF" />
            <stop offset="0.5" stop-color="#EEF3FF" stop-opacity="0.75" />
            <stop offset="1" stop-color="#EEF3FF" stop-opacity="0" />
        </linearGradient>
        <linearGradient id="paint6_linear_5740_524" x1="46.5833" y1="19.7741" x2="192.417" y2="131.191" gradientUnits="userSpaceOnUse">
            <stop offset="0.223958" stop-color="#EEF3FF" stop-opacity="0.5" />
            <stop offset="0.776042" stop-color="white" />
        </linearGradient>
        <radialGradient id="paint7_radial_5740_524" cx="0" cy="0" r="1" gradientUnits="userSpaceOnUse" gradientTransform="translate(119.5 103.468) rotate(90) scale(83.694 72.9167)">
            <stop stop-color="#D9D9D9" />
            <stop offset="1" stop-color="#D9D9D9" stop-opacity="0" />
        </radialGradient>
        <linearGradient id="paint8_linear_5740_524" x1="83.0417" y1="145.482" x2="155.958" y2="145.482" gradientUnits="userSpaceOnUse">
            <stop stop-color="white" stop-opacity="0" />
            <stop offset="0.5" stop-color="white" />
            <stop offset="1" stop-color="white" stop-opacity="0" />
        </linearGradient>
    </defs>
</svg>